<svg xmlns="http://www.w3.org/2000/svg" xmlns:xlink="http://www.w3.org/1999/xlink" width="617.72" height="323.349" viewBox="0 0 617.72 323.349"><defs><style>.a{fill:none;}.b{fill:#f8f7ff;}.c{fill:#40327a;}.d{fill:#eeebff;}.e{fill:#ddd6ff;}.f{fill:#fff;}.g{fill:#c4b8ff;}.h{clip-path:url(#a);}.i{fill:#ffc359;}.j{fill:#ff95a9;}.k{fill:#ffc371;}</style><clipPath id="a"><path class="a" d="M109.673,7.621c-2.215,2.113-11.6,92.46-11.6,92.46h0L0,126.952V199.7l22.168,9.579c20.06,68.6,111.281,14.907,111.281,14.907h0c33.512-38.727,98.407-46.938,98.407-46.938h0c46.422-15.964,29.628-122.475,29.628-122.475h0C261.792,10.311,215.833,0,174.4,0h0c-33.335,0-63.742,6.68-64.73,7.621Z" transform="translate(0 0)"/></clipPath></defs><path class="a" d="M0,0H458.913V275.453H0Z" transform="translate(0 0)"/><path class="b" d="M26.366,275.453H410.681c63.446-36.927,52-112.5,34.416-125.214-24.041-17.38-61.763,48.044-85.286,36.1-67.2-34.146,72.531-130.312,16.223-152.593-36.64-14.5-62.088,96.433-106.761,57.693-23.244-20.154-2.132-49.5-6.583-73.311-7.056-37.78-67.938-18.4-121.372,76.136-22.524,39.85-53.4-34.576-78.587-43.321C39.35,42.822-31.22,79.5,41.776,162.1c23.239,26.3-91.337,37.368-15.41,113.35"/><path class="a" d="M0,323.349H617.719V0H0Z" transform="translate(0 0)"/><path class="c" d="M0,74H1.22V0H0Z" transform="translate(278.78 222.204)"/><path class="c" d="M82.1,42.374,41.481,1.728.864,42.374,0,41.511,41.481,0l41.48,41.511Z" transform="translate(237.91 254.265)"/><path class="d" d="M0,158.66H297.636V0H0Z" transform="translate(130.572 79.987)"/><path class="e" d="M298.427,0V44.174H0Z" transform="translate(129.518 194.473)"/><path class="f" d="M0,158.66H2.109V0H0Z" transform="translate(129.519 79.987)"/><path class="g" d="M160.785,115.035H0v-2.111H158.676V0h2.109Z" transform="translate(268.213 124.667)"/><g transform="translate(326.938 60.019)"><path class="a" d="M109.673,7.621c-2.215,2.113-11.6,92.46-11.6,92.46h0L0,126.952V199.7l22.168,9.579c20.06,68.6,111.281,14.907,111.281,14.907h0c33.512-38.727,98.407-46.938,98.407-46.938h0c46.422-15.964,29.628-122.475,29.628-122.475h0C261.792,10.311,215.833,0,174.4,0h0c-33.335,0-63.742,6.68-64.73,7.621Z" transform="translate(0 0)"/><g class="h"><path class="a" d="M109.673,7.621c-2.215,2.113-11.6,92.46-11.6,92.46h0L0,126.952V199.7l22.168,9.579c20.06,68.6,111.281,14.907,111.281,14.907h0c33.512-38.727,98.407-46.938,98.407-46.938h0c46.422-15.964,29.628-122.475,29.628-122.475h0C261.792,10.311,215.833,0,174.4,0h0c-33.335,0-63.742,6.68-64.73,7.621" transform="translate(0 0)"/><path class="i" d="M.024,37.165a38.257,38.257,0,0,0,2.3,14.5l71.332,2.483A38.49,38.49,0,1,0,.024,37.165" transform="translate(146.696 209.188)"/><path class="a" d="M109.673,7.621c-2.215,2.113-11.6,92.46-11.6,92.46h0L0,126.952V199.7l22.168,9.579c20.06,68.6,111.281,14.907,111.281,14.907h0c33.512-38.727,98.407-46.938,98.407-46.938h0c46.422-15.964,29.628-122.475,29.628-122.475h0C261.792,10.311,215.833,0,174.4,0h0c-33.335,0-63.742,6.68-64.73,7.621" transform="translate(0 0)"/><path class="i" d="M0,10.56A10.556,10.556,0,1,0,10.556,0,10.558,10.558,0,0,0,0,10.56" transform="translate(174.631 237.13)"/><path class="a" d="M109.673,7.621c-2.215,2.113-11.6,92.46-11.6,92.46h0L0,126.952V199.7l22.168,9.579c20.06,68.6,111.281,14.907,111.281,14.907h0c33.512-38.727,98.407-46.938,98.407-46.938h0c46.422-15.964,29.628-122.475,29.628-122.475h0C261.792,10.311,215.833,0,174.4,0h0c-33.335,0-63.742,6.68-64.73,7.621" transform="translate(0 0)"/><path class="j" d="M.039,9.257A8.445,8.445,0,1,0,7.637.039a8.446,8.446,0,0,0-7.6,9.218" transform="translate(5.279 165.871)"/><path class="a" d="M109.673,7.621c-2.215,2.113-11.6,92.46-11.6,92.46h0L0,126.952V199.7l22.168,9.579c20.06,68.6,111.281,14.907,111.281,14.907h0c33.512-38.727,98.407-46.938,98.407-46.938h0c46.422-15.964,29.628-122.475,29.628-122.475h0C261.792,10.311,215.833,0,174.4,0h0c-33.335,0-63.742,6.68-64.73,7.621" transform="translate(0 0)"/><path class="j" d="M8.957,17.954A8.847,8.847,0,0,1,3.264,15.9,8.976,8.976,0,0,1,2.053,3.264,8.912,8.912,0,0,1,8.117.041C8.406.014,8.7,0,8.987,0A8.969,8.969,0,0,1,17.9,8.118a8.976,8.976,0,0,1-8.073,9.794C9.526,17.94,9.232,17.954,8.957,17.954Zm.031-16.9c-.245,0-.5.013-.769.038A7.921,7.921,0,0,0,3.936,15.086,7.811,7.811,0,0,0,8.964,16.9c.254,0,.512-.012.766-.036A7.922,7.922,0,0,0,14.011,2.866,7.812,7.812,0,0,0,8.988,1.055Z" transform="translate(4.751 165.344)"/><path class="a" d="M109.673,7.621c-2.215,2.113-11.6,92.46-11.6,92.46h0L0,126.952V199.7l22.168,9.579c20.06,68.6,111.281,14.907,111.281,14.907h0c33.512-38.727,98.407-46.938,98.407-46.938h0c46.422-15.964,29.628-122.475,29.628-122.475h0C261.792,10.311,215.833,0,174.4,0h0c-33.335,0-63.742,6.68-64.73,7.621" transform="translate(0 0)"/><path class="j" d="M.029,6.942a6.333,6.333,0,1,1,6.91,5.7,6.336,6.336,0,0,1-6.91-5.7" transform="translate(22.292 168.675)"/><path class="a" d="M109.673,7.621c-2.215,2.113-11.6,92.46-11.6,92.46h0L0,126.952V199.7l22.168,9.579c20.06,68.6,111.281,14.907,111.281,14.907h0c33.512-38.727,98.407-46.938,98.407-46.938h0c46.422-15.964,29.628-122.475,29.628-122.475h0C261.792,10.311,215.833,0,174.4,0h0c-33.335,0-63.742,6.68-64.73,7.621" transform="translate(0 0)"/><path class="j" d="M6.857,13.728A6.864,6.864,0,0,1,6.206.031C6.424.01,6.644,0,6.862,0a6.864,6.864,0,0,1,.656,13.7C7.3,13.718,7.081,13.728,6.857,13.728ZM6.863,1.055h0c-.184,0-.371.009-.556.027a5.808,5.808,0,0,0,.554,11.59c.184,0,.371-.009.555-.026a5.809,5.809,0,0,0-.553-11.59Z" transform="translate(21.764 168.147)"/><path class="a" d="M109.673,7.621c-2.215,2.113-11.6,92.46-11.6,92.46h0L0,126.952V199.7l22.168,9.579c20.06,68.6,111.281,14.907,111.281,14.907h0c33.512-38.727,98.407-46.938,98.407-46.938h0c46.422-15.964,29.628-122.475,29.628-122.475h0C261.792,10.311,215.833,0,174.4,0h0c-33.335,0-63.742,6.68-64.73,7.621Z" transform="translate(0 0)"/><path class="j" d="M.778,0l14.5,2.767L14.7,15.3,0,16.711Z" transform="translate(14.532 166.02)"/><path class="a" d="M109.673,7.621c-2.215,2.113-11.6,92.46-11.6,92.46h0L0,126.952V199.7l22.168,9.579c20.06,68.6,111.281,14.907,111.281,14.907h0c33.512-38.727,98.407-46.938,98.407-46.938h0c46.422-15.964,29.628-122.475,29.628-122.475h0C261.792,10.311,215.833,0,174.4,0h0c-33.335,0-63.742,6.68-64.73,7.621Z" transform="translate(0 0)"/><path class="j" d="M0,17.925H0L.835,0,16.386,2.966l-.626,13.448L0,17.925ZM1.832,1.265,1.111,16.758l13.638-1.309L15.29,3.831,1.832,1.265h0Z" transform="translate(13.976 165.388)"/><path class="a" d="M109.673,7.621c-2.215,2.113-11.6,92.46-11.6,92.46h0L0,126.952V199.7l22.168,9.579c20.06,68.6,111.281,14.907,111.281,14.907h0c33.512-38.727,98.407-46.938,98.407-46.938h0c46.422-15.964,29.628-122.475,29.628-122.475h0C261.792,10.311,215.833,0,174.4,0h0c-33.335,0-63.742,6.68-64.73,7.621" transform="translate(0 0)"/><path class="j" d="M.821,9.625A14.4,14.4,0,1,1,9.622,28,14.4,14.4,0,0,1,.821,9.625" transform="translate(95.271 180.593)"/><path class="a" d="M109.673,7.621c-2.215,2.113-11.6,92.46-11.6,92.46h0L0,126.952V199.7l22.168,9.579c20.06,68.6,111.281,14.907,111.281,14.907h0c33.512-38.727,98.407-46.938,98.407-46.938h0c46.422-15.964,29.628-122.475,29.628-122.475h0C261.792,10.311,215.833,0,174.4,0h0c-33.335,0-63.742,6.68-64.73,7.621" transform="translate(0 0)"/><path class="j" d="M14.938,29.874a14.955,14.955,0,1,1,6.44-1.475A14.785,14.785,0,0,1,14.938,29.874Zm0-28.82h0a13.881,13.881,0,0,0,0,27.762,13.883,13.883,0,0,0,12.5-19.881A13.872,13.872,0,0,0,14.94,1.055Z" transform="translate(94.746 180.068)"/><path class="a" d="M109.673,7.621c-2.215,2.113-11.6,92.46-11.6,92.46h0L0,126.952V199.7l22.168,9.579c20.06,68.6,111.281,14.907,111.281,14.907h0c33.512-38.727,98.407-46.938,98.407-46.938h0c46.422-15.964,29.628-122.475,29.628-122.475h0C261.792,10.311,215.833,0,174.4,0h0c-33.335,0-63.742,6.68-64.73,7.621Z" transform="translate(0 0)"/><path class="j" d="M74.3,30.48,19.743,73.065,0,52.277,45.352,0Z" transform="translate(98.787 133.293)"/><path class="a" d="M109.673,7.621c-2.215,2.113-11.6,92.46-11.6,92.46h0L0,126.952V199.7l22.168,9.579c20.06,68.6,111.281,14.907,111.281,14.907h0c33.512-38.727,98.407-46.938,98.407-46.938h0c46.422-15.964,29.628-122.475,29.628-122.475h0C261.792,10.311,215.833,0,174.4,0h0c-33.335,0-63.742,6.68-64.73,7.621Z" transform="translate(0 0)"/><path class="j" d="M20.4,74.561,0,53.077l.313-.362L46.045,0,75.8,31.325Z" transform="translate(98.075 132.508)"/><path class="a" d="M109.673,7.621c-2.215,2.113-11.6,92.46-11.6,92.46h0L0,126.952V199.7l22.168,9.579c20.06,68.6,111.281,14.907,111.281,14.907h0c33.512-38.727,98.407-46.938,98.407-46.938h0c46.422-15.964,29.628-122.475,29.628-122.475h0C261.792,10.311,215.833,0,174.4,0h0c-33.335,0-63.742,6.68-64.73,7.621Z" transform="translate(0 0)"/><path class="j" d="M3.013,0,0,12.251l78.37,27.6L85.214,12,13.506,1.535,7.248.619Z" transform="translate(26.531 168.735)"/><path class="a" d="M109.673,7.621c-2.215,2.113-11.6,92.46-11.6,92.46h0L0,126.952V199.7l22.168,9.579c20.06,68.6,111.281,14.907,111.281,14.907h0c33.512-38.727,98.407-46.938,98.407-46.938h0c46.422-15.964,29.628-122.475,29.628-122.475h0C261.792,10.311,215.833,0,174.4,0h0c-33.335,0-63.742,6.68-64.73,7.621Z" transform="translate(0 0)"/><path class="j" d="M79.367,41.134,0,13.182,3.241,0l83.25,12.154L79.368,41.133ZM4.037,1.183,1.253,12.5,78.621,39.752,85.189,13.03,4.036,1.183Z" transform="translate(25.906 168.143)"/><path class="a" d="M109.673,7.621c-2.215,2.113-11.6,92.46-11.6,92.46h0L0,126.952V199.7l22.168,9.579c20.06,68.6,111.281,14.907,111.281,14.907h0c33.512-38.727,98.407-46.938,98.407-46.938h0c46.422-15.964,29.628-122.475,29.628-122.475h0C261.792,10.311,215.833,0,174.4,0h0c-33.335,0-63.742,6.68-64.73,7.621Z" transform="translate(0 0)"/><path class="j" d="M3.013,0,0,12.252,5.278,14.11,7.25.619Z" transform="translate(26.525 168.738)"/><path class="a" d="M109.673,7.621c-2.215,2.113-11.6,92.46-11.6,92.46h0L0,126.952V199.7l22.168,9.579c20.06,68.6,111.281,14.907,111.281,14.907h0c33.512-38.727,98.407-46.938,98.407-46.938h0c46.422-15.964,29.628-122.475,29.628-122.475h0C261.792,10.311,215.833,0,174.4,0h0c-33.335,0-63.742,6.68-64.73,7.621Z" transform="translate(0 0)"/><path class="j" d="M6.332,15.412h0L0,13.181,3.241,0,8.473.763,6.333,15.41ZM4.036,1.183,1.253,12.5,5.474,13.99l1.8-12.333L4.036,1.183Z" transform="translate(25.9 168.147)"/><path class="a" d="M109.673,7.621c-2.215,2.113-11.6,92.46-11.6,92.46h0L0,126.952V199.7l22.168,9.579c20.06,68.6,111.281,14.907,111.281,14.907h0c33.512-38.727,98.407-46.938,98.407-46.938h0c46.422-15.964,29.628-122.475,29.628-122.475h0C261.792,10.311,215.833,0,174.4,0h0c-33.335,0-63.742,6.68-64.73,7.621" transform="translate(0 0)"/><path class="k" d="M4.468,34.113A21.115,21.115,0,1,0,8.126,4.469,21.1,21.1,0,0,0,4.468,34.113" transform="translate(138.988 126.001)"/><path class="a" d="M109.673,7.621c-2.215,2.113-11.6,92.46-11.6,92.46h0L0,126.952V199.7l22.168,9.579c20.06,68.6,111.281,14.907,111.281,14.907h0c33.512-38.727,98.407-46.938,98.407-46.938h0c46.422-15.964,29.628-122.475,29.628-122.475h0C261.792,10.311,215.833,0,174.4,0h0c-33.335,0-63.742,6.68-64.73,7.621" transform="translate(0 0)"/><path class="i" d="M21.666,43.279a21.892,21.892,0,0,1-9.36-2.112A21.639,21.639,0,0,1,.166,18.986,21.6,21.6,0,0,1,21.617,0a21.9,21.9,0,0,1,9.361,2.112A21.387,21.387,0,0,1,38.7,8.322,21.627,21.627,0,0,1,21.666,43.279ZM21.62,1.055A20.587,20.587,0,0,0,5.413,34.306a20.335,20.335,0,0,0,7.347,5.908,20.825,20.825,0,0,0,8.9,2.01A20.582,20.582,0,0,0,37.871,8.972a20.332,20.332,0,0,0-7.347-5.908A20.824,20.824,0,0,0,21.62,1.055Z" transform="translate(138.458 125.482)"/><path class="a" d="M109.673,7.621c-2.215,2.113-11.6,92.46-11.6,92.46h0L0,126.952V199.7l22.168,9.579c20.06,68.6,111.281,14.907,111.281,14.907h0c33.512-38.727,98.407-46.938,98.407-46.938h0c46.422-15.964,29.628-122.475,29.628-122.475h0C261.792,10.311,215.833,0,174.4,0h0c-33.335,0-63.742,6.68-64.73,7.621Z" transform="translate(0 0)"/><path class="j" d="M0,35.7l62.021,30.7L77.166,42.049,22.206,0Z" transform="translate(207.844 132.342)"/><path class="a" d="M109.673,7.621c-2.215,2.113-11.6,92.46-11.6,92.46h0L0,126.952V199.7l22.168,9.579c20.06,68.6,111.281,14.907,111.281,14.907h0c33.512-38.727,98.407-46.938,98.407-46.938h0c46.422-15.964,29.628-122.475,29.628-122.475h0C261.792,10.311,215.833,0,174.4,0h0c-33.335,0-63.742,6.68-64.73,7.621Z" transform="translate(0 0)"/><path class="j" d="M62.972,67.854,0,36.686,22.82,0l55.8,42.693L62.973,67.853h0ZM23.1,1.546h0L1.512,36.255,62.582,66.481,77.221,42.949,23.1,1.546Z" transform="translate(207.088 131.57)"/><path class="a" d="M109.673,7.621c-2.215,2.113-11.6,92.46-11.6,92.46h0L0,126.952V199.7l22.168,9.579c20.06,68.6,111.281,14.907,111.281,14.907h0c33.512-38.727,98.407-46.938,98.407-46.938h0c46.422-15.964,29.628-122.475,29.628-122.475h0C261.792,10.311,215.833,0,174.4,0h0c-33.335,0-63.742,6.68-64.73,7.621Z" transform="translate(0 0)"/><path class="i" d="M0,39.253,34.049,0,63.8,31.326,22.845,63.3Z" transform="translate(110.07 132.502)"/><path class="a" d="M109.673,7.621c-2.215,2.113-11.6,92.46-11.6,92.46h0L0,126.952V199.7l22.168,9.579c20.06,68.6,111.281,14.907,111.281,14.907h0c33.512-38.727,98.407-46.938,98.407-46.938h0c46.422-15.964,29.628-122.475,29.628-122.475h0C261.792,10.311,215.833,0,174.4,0h0c-33.335,0-63.742,6.68-64.73,7.621Z" transform="translate(0 0)"/><path class="i" d="M0,36.687,22.824,0,64.089,31.572,46.563,59.731Z" transform="translate(207.086 131.566)"/><path class="a" d="M109.673,7.621c-2.215,2.113-11.6,92.46-11.6,92.46h0L0,126.952V199.7l22.168,9.579c20.06,68.6,111.281,14.907,111.281,14.907h0c33.512-38.727,98.407-46.938,98.407-46.938h0c46.422-15.964,29.628-122.475,29.628-122.475h0C261.792,10.311,215.833,0,174.4,0h0c-33.335,0-63.742,6.68-64.73,7.621" transform="translate(0 0)"/><path class="i" d="M40.038,30.491a21.113,21.113,0,1,1-9.561-28.3,21.107,21.107,0,0,1,9.561,28.3" transform="translate(196.089 127.984)"/><path class="a" d="M109.673,7.621c-2.215,2.113-11.6,92.46-11.6,92.46h0L0,126.952V199.7l22.168,9.579c20.06,68.6,111.281,14.907,111.281,14.907h0c33.512-38.727,98.407-46.938,98.407-46.938h0c46.422-15.964,29.628-122.475,29.628-122.475h0C261.792,10.311,215.833,0,174.4,0h0c-33.335,0-63.742,6.68-64.73,7.621" transform="translate(0 0)"/><path class="i" d="M0,14.994,1.5,120.359l76.925,2.678L87.242,18.03A14.781,14.781,0,0,0,73.031,2.018L15.291.009A14.781,14.781,0,0,0,0,14.994" transform="translate(145.222 125.994)"/><path class="a" d="M109.673,7.621c-2.215,2.113-11.6,92.46-11.6,92.46h0L0,126.952V199.7l22.168,9.579c20.06,68.6,111.281,14.907,111.281,14.907h0c33.512-38.727,98.407-46.938,98.407-46.938h0c46.422-15.964,29.628-122.475,29.628-122.475h0C261.792,10.311,215.833,0,174.4,0h0c-33.335,0-63.742,6.68-64.73,7.621" transform="translate(0 0)"/><path class="c" d="M12.368,25.9l3.834.173L17.368.187,13.534.013A12.957,12.957,0,0,0,12.368,25.9" transform="translate(150.793 48.539)"/><path class="a" d="M109.673,7.621c-2.215,2.113-11.6,92.46-11.6,92.46h0L0,126.952V199.7l22.168,9.579c20.06,68.6,111.281,14.907,111.281,14.907h0c33.512-38.727,98.407-46.938,98.407-46.938h0c46.422-15.964,29.628-122.475,29.628-122.475h0C261.792,10.311,215.833,0,174.4,0h0c-33.335,0-63.742,6.68-64.73,7.621Z" transform="translate(0 0)"/><path class="c" d="M0,20.09l9.583.433A9.594,9.594,0,0,0,19.6,11.367l.474-10.5L.9,0Z" transform="translate(193.573 80.227)"/><path class="a" d="M109.673,7.621c-2.215,2.113-11.6,92.46-11.6,92.46h0L0,126.952V199.7l22.168,9.579c20.06,68.6,111.281,14.907,111.281,14.907h0c33.512-38.727,98.407-46.938,98.407-46.938h0c46.422-15.964,29.628-122.475,29.628-122.475h0C261.792,10.311,215.833,0,174.4,0h0c-33.335,0-63.742,6.68-64.73,7.621Z" transform="translate(0 0)"/><path class="j" d="M0,28.578l26.362,1.189L27.65,1.189,1.289,0Z" transform="translate(174.622 97.779)"/><path class="a" d="M109.673,7.621c-2.215,2.113-11.6,92.46-11.6,92.46h0L0,126.952V199.7l22.168,9.579c20.06,68.6,111.281,14.907,111.281,14.907h0c33.512-38.727,98.407-46.938,98.407-46.938h0c46.422-15.964,29.628-122.475,29.628-122.475h0C261.792,10.311,215.833,0,174.4,0h0c-33.335,0-63.742,6.68-64.73,7.621" transform="translate(0 0)"/><path class="c" d="M9.94,33.275l10.406.47L21.847.432l-9.3-.42A11.515,11.515,0,0,0,.525,11L.011,22.4A10.412,10.412,0,0,0,9.94,33.275" transform="translate(155.841 40.613)"/><path class="a" d="M109.673,7.621c-2.215,2.113-11.6,92.46-11.6,92.46h0L0,126.952V199.7l22.168,9.579c20.06,68.6,111.281,14.907,111.281,14.907h0c33.512-38.727,98.407-46.938,98.407-46.938h0c46.422-15.964,29.628-122.475,29.628-122.475h0C261.792,10.311,215.833,0,174.4,0h0c-33.335,0-63.742,6.68-64.73,7.621" transform="translate(0 0)"/><path class="j" d="M9.163,58.885,43.188,60.42l1.728-38.334A21.124,21.124,0,0,0,2.781,19.163L.043,48.4a9.6,9.6,0,0,0,9.12,10.483" transform="translate(158.57 50.03)"/><path class="a" d="M109.673,7.621c-2.215,2.113-11.6,92.46-11.6,92.46h0L0,126.952V199.7l22.168,9.579c20.06,68.6,111.281,14.907,111.281,14.907h0c33.512-38.727,98.407-46.938,98.407-46.938h0c46.422-15.964,29.628-122.475,29.628-122.475h0C261.792,10.311,215.833,0,174.4,0h0c-33.335,0-63.742,6.68-64.73,7.621" transform="translate(0 0)"/><path class="c" d="M4.5.13,1.627,0,0,36.1l22.04.994L22.8,20.171A19.192,19.192,0,0,0,4.5.13" transform="translate(191.476 46.879)"/><path class="a" d="M109.673,7.621c-2.215,2.113-11.6,92.46-11.6,92.46h0L0,126.952V199.7l22.168,9.579c20.06,68.6,111.281,14.907,111.281,14.907h0c33.512-38.727,98.407-46.938,98.407-46.938h0c46.422-15.964,29.628-122.475,29.628-122.475h0C261.792,10.311,215.833,0,174.4,0h0c-33.335,0-63.742,6.68-64.73,7.621" transform="translate(0 0)"/><path class="j" d="M5.751,11.511,0,11.253.26,5.5a5.755,5.755,0,1,1,5.491,6.011" transform="translate(197.064 75.576)"/><path class="a" d="M109.673,7.621c-2.215,2.113-11.6,92.46-11.6,92.46h0L0,126.952V199.7l22.168,9.579c20.06,68.6,111.281,14.907,111.281,14.907h0c33.512-38.727,98.407-46.938,98.407-46.938h0c46.422-15.964,29.628-122.475,29.628-122.475h0C261.792,10.311,215.833,0,174.4,0h0c-33.335,0-63.742,6.68-64.73,7.621Z" transform="translate(0 0)"/><path class="c" d="M0,22.454l21.831.985A16.173,16.173,0,0,0,38.694,8.023a7.674,7.674,0,1,0-15.333-.691.8.8,0,0,1-.838.766L.69,7.114Z" transform="translate(158.603 40.789)"/><path class="a" d="M109.673,7.621c-2.215,2.113-11.6,92.46-11.6,92.46h0L0,126.952V199.7l22.168,9.579c20.06,68.6,111.281,14.907,111.281,14.907h0c33.512-38.727,98.407-46.938,98.407-46.938h0c46.422-15.964,29.628-122.475,29.628-122.475h0C261.792,10.311,215.833,0,174.4,0h0c-33.335,0-63.742,6.68-64.73,7.621" transform="translate(0 0)"/><path class="c" d="M7.33,15.348l10.861.49A7.678,7.678,0,0,0,18.882.5L8.021.008a7.678,7.678,0,0,0-.69,15.34" transform="translate(159.765 40.591)"/><path class="a" d="M109.673,7.621c-2.215,2.113-11.6,92.46-11.6,92.46h0L0,126.952V199.7l22.168,9.579c20.06,68.6,111.281,14.907,111.281,14.907h0c33.512-38.727,98.407-46.938,98.407-46.938h0c46.422-15.964,29.628-122.475,29.628-122.475h0C261.792,10.311,215.833,0,174.4,0h0c-33.335,0-63.742,6.68-64.73,7.621" transform="translate(0 0)"/><path class="j" d="M.014,12.606A13.195,13.195,0,1,0,13.79.014,13.2,13.2,0,0,0,.014,12.606" transform="translate(174.608 113.752)"/><path class="a" d="M109.673,7.621c-2.215,2.113-11.6,92.46-11.6,92.46h0L0,126.952V199.7l22.168,9.579c20.06,68.6,111.281,14.907,111.281,14.907h0c33.512-38.727,98.407-46.938,98.407-46.938h0c46.422-15.964,29.628-122.475,29.628-122.475h0C261.792,10.311,215.833,0,174.4,0h0c-33.335,0-63.742,6.68-64.73,7.621Z" transform="translate(0 0)"/><path class="c" d="M.034,23.781a7.686,7.686,0,0,0,7.3,8.4l15.226.687A15.351,15.351,0,0,0,38.587,18.214L39.4.261,33.65,0a6.4,6.4,0,0,1-6.677,6.106L1.79,4.971Z" transform="translate(157.856 82.392)"/><path class="a" d="M109.673,7.621c-2.215,2.113-11.6,92.46-11.6,92.46h0L0,126.952V199.7l22.168,9.579c20.06,68.6,111.281,14.907,111.281,14.907h0c33.512-38.727,98.407-46.938,98.407-46.938h0c46.422-15.964,29.628-122.475,29.628-122.475h0C261.792,10.311,215.833,0,174.4,0h0c-33.335,0-63.742,6.68-64.73,7.621" transform="translate(0 0)"/><path class="j" d="M.02,9.021a8.444,8.444,0,1,1,9,7.855,8.445,8.445,0,0,1-9-7.855" transform="translate(198.278 243.364)"/><path class="a" d="M109.673,7.621c-2.215,2.113-11.6,92.46-11.6,92.46h0L0,126.952V199.7l22.168,9.579c20.06,68.6,111.281,14.907,111.281,14.907h0c33.512-38.727,98.407-46.938,98.407-46.938h0c46.422-15.964,29.628-122.475,29.628-122.475h0C261.792,10.311,215.833,0,174.4,0h0c-33.335,0-63.742,6.68-64.73,7.621" transform="translate(0 0)"/><path class="j" d="M8.966,17.952A8.977,8.977,0,0,1,2.213,3.074,8.9,8.9,0,0,1,8.364.021C8.57.007,8.779,0,8.985,0a8.976,8.976,0,0,1,.6,17.931C9.382,17.945,9.181,17.952,8.966,17.952Zm.018-16.9c-.187,0-.367.006-.549.02a7.916,7.916,0,0,0-7.36,8.438A7.936,7.936,0,0,0,8.963,16.9c.181,0,.365-.006.546-.019A7.92,7.92,0,0,0,8.984,1.055Z" transform="translate(197.75 242.836)"/><path class="a" d="M109.673,7.621c-2.215,2.113-11.6,92.46-11.6,92.46h0L0,126.952V199.7l22.168,9.579c20.06,68.6,111.281,14.907,111.281,14.907h0c33.512-38.727,98.407-46.938,98.407-46.938h0c46.422-15.964,29.628-122.475,29.628-122.475h0C261.792,10.311,215.833,0,174.4,0h0c-33.335,0-63.742,6.68-64.73,7.621" transform="translate(0 0)"/><path class="j" d="M.015,6.766A6.334,6.334,0,1,0,5.9.015,6.333,6.333,0,0,0,.015,6.766" transform="translate(214.979 242.366)"/><path class="a" d="M109.673,7.621c-2.215,2.113-11.6,92.46-11.6,92.46h0L0,126.952V199.7l22.168,9.579c20.06,68.6,111.281,14.907,111.281,14.907h0c33.512-38.727,98.407-46.938,98.407-46.938h0c46.422-15.964,29.628-122.475,29.628-122.475h0C261.792,10.311,215.833,0,174.4,0h0c-33.335,0-63.742,6.68-64.73,7.621" transform="translate(0 0)"/><path class="j" d="M6.851,13.729A6.864,6.864,0,0,1,6.4.016C6.554.005,6.714,0,6.872,0a6.864,6.864,0,0,1,.456,13.712C7.168,13.723,7.008,13.729,6.851,13.729ZM6.87,1.056c-.12,0-.252,0-.4.013a5.807,5.807,0,0,0-5.4,6.189,5.805,5.805,0,0,0,5.789,5.414c.131,0,.265,0,.4-.013a5.809,5.809,0,0,0-.385-11.6Z" transform="translate(214.451 241.838)"/><path class="a" d="M109.673,7.621c-2.215,2.113-11.6,92.46-11.6,92.46h0L0,126.952V199.7l22.168,9.579c20.06,68.6,111.281,14.907,111.281,14.907h0c33.512-38.727,98.407-46.938,98.407-46.938h0c46.422-15.964,29.628-122.475,29.628-122.475h0C261.792,10.311,215.833,0,174.4,0h0c-33.335,0-63.742,6.68-64.73,7.621Z" transform="translate(0 0)"/><path class="j" d="M3.49,17.362,17.35,12.27,14.733,0,0,1Z" transform="translate(206.149 242.381)"/><path class="a" d="M109.673,7.621c-2.215,2.113-11.6,92.46-11.6,92.46h0L0,126.952V199.7l22.168,9.579c20.06,68.6,111.281,14.907,111.281,14.907h0c33.512-38.727,98.407-46.938,98.407-46.938h0c46.422-15.964,29.628-122.475,29.628-122.475h0C261.792,10.311,215.833,0,174.4,0h0c-33.335,0-63.742,6.68-64.73,7.621Z" transform="translate(0 0)"/><path class="j" d="M3.742,18.625h0L0,1.074,15.8,0,18.6,13.164,3.743,18.625ZM14.956,1.115,1.287,2.046,4.521,17.214l12.861-4.725Z" transform="translate(205.506 241.824)"/><path class="a" d="M109.673,7.621c-2.215,2.113-11.6,92.46-11.6,92.46h0L0,126.952V199.7l22.168,9.579c20.06,68.6,111.281,14.907,111.281,14.907h0c33.512-38.727,98.407-46.938,98.407-46.938h0c46.422-15.964,29.628-122.475,29.628-122.475h0C261.792,10.311,215.833,0,174.4,0h0c-33.335,0-63.742,6.68-64.73,7.621" transform="translate(0 0)"/><path class="j" d="M6.015,26.117a14.4,14.4,0,1,0-3.321-20.1,14.394,14.394,0,0,0,3.321,20.1" transform="translate(261.851 171.42)"/><path class="a" d="M109.673,7.621c-2.215,2.113-11.6,92.46-11.6,92.46h0L0,126.952V199.7l22.168,9.579c20.06,68.6,111.281,14.907,111.281,14.907h0c33.512-38.727,98.407-46.938,98.407-46.938h0c46.422-15.964,29.628-122.475,29.628-122.475h0C261.792,10.311,215.833,0,174.4,0h0c-33.335,0-63.742,6.68-64.73,7.621" transform="translate(0 0)"/><path class="j" d="M14.9,29.855a14.8,14.8,0,0,1-8.672-2.788A14.93,14.93,0,0,1,8.211,1.591,15.093,15.093,0,0,1,14.943,0a14.8,14.8,0,0,1,8.67,2.787,14.932,14.932,0,0,1-1.981,25.476A15.086,15.086,0,0,1,14.9,29.855Zm.04-28.8A14.024,14.024,0,0,0,8.685,2.535,13.871,13.871,0,0,0,14.9,28.8a14.021,14.021,0,0,0,6.255-1.479A13.871,13.871,0,0,0,14.941,1.056Z" transform="translate(261.329 170.898)"/><path class="a" d="M109.673,7.621c-2.215,2.113-11.6,92.46-11.6,92.46h0L0,126.952V199.7l22.168,9.579c20.06,68.6,111.281,14.907,111.281,14.907h0c33.512-38.727,98.407-46.938,98.407-46.938h0c46.422-15.964,29.628-122.475,29.628-122.475h0C261.792,10.311,215.833,0,174.4,0h0c-33.335,0-63.742,6.68-64.73,7.621Z" transform="translate(0 0)"/><path class="j" d="M48.38,0,0,67.574l9.489,8.308,3.116-2.937,4.6-4.34L69.953,18.889Z" transform="translate(216.172 177.436)"/><path class="a" d="M109.673,7.621c-2.215,2.113-11.6,92.46-11.6,92.46h0L0,126.952V199.7l22.168,9.579c20.06,68.6,111.281,14.907,111.281,14.907h0c33.512-38.727,98.407-46.938,98.407-46.938h0c46.422-15.964,29.628-122.475,29.628-122.475h0C261.792,10.311,215.833,0,174.4,0h0c-33.335,0-63.742,6.68-64.73,7.621Z" transform="translate(0 0)"/><path class="j" d="M10.211,77.375h0L0,68.436l.28-.39L49,0,71.446,19.655,10.211,77.375ZM49.18,1.561,1.417,68.272l8.769,7.677L69.876,19.683Z" transform="translate(215.464 176.656)"/><path class="a" d="M109.673,7.621c-2.215,2.113-11.6,92.46-11.6,92.46h0L0,126.952V199.7l22.168,9.579c20.06,68.6,111.281,14.907,111.281,14.907h0c33.512-38.727,98.407-46.938,98.407-46.938h0c46.422-15.964,29.628-122.475,29.628-122.475h0C261.792,10.311,215.833,0,174.4,0h0c-33.335,0-63.742,6.68-64.73,7.621Z" transform="translate(0 0)"/><path class="j" d="M9.489,12.858,0,4.55,3.257,0l9.348,9.921Z" transform="translate(216.166 240.46)"/><path class="a" d="M109.673,7.621c-2.215,2.113-11.6,92.46-11.6,92.46h0L0,126.952V199.7l22.168,9.579c20.06,68.6,111.281,14.907,111.281,14.907h0c33.512-38.727,98.407-46.938,98.407-46.938h0c46.422-15.964,29.628-122.475,29.628-122.475h0C261.792,10.311,215.833,0,174.4,0h0c-33.335,0-63.742,6.68-64.73,7.621Z" transform="translate(0 0)"/><path class="j" d="M10.211,14.4h0L0,5.461,3.91,0,14.061,10.773,10.212,14.4ZM4.022,1.659,1.417,5.3l8.769,7.677,2.382-2.246L4.022,1.659Z" transform="translate(215.458 239.63)"/><path class="a" d="M109.673,7.621c-2.215,2.113-11.6,92.46-11.6,92.46h0L0,126.952V199.7l22.168,9.579c20.06,68.6,111.281,14.907,111.281,14.907h0c33.512-38.727,98.407-46.938,98.407-46.938h0c46.422-15.964,29.628-122.475,29.628-122.475h0C261.792,10.311,215.833,0,174.4,0h0c-33.335,0-63.742,6.68-64.73,7.621Z" transform="translate(0 0)"/><path class="f" d="M.649,13.921,0,12.032,15.051,0l1.3,1.665Z" transform="translate(132.915 183.766)"/><g transform="translate(166.629 94)"><path class="f" d="M11.6.545A5.806,5.806,0,1,1,.007,0Z" transform="translate(0)"/></g></g></g></svg>